<?xml version="1.0" standalone="no"?>
<!DOCTYPE svg PUBLIC "-//W3C//DTD SVG 20010904//EN"
 "http://www.w3.org/TR/2001/REC-SVG-20010904/DTD/svg10.dtd">
<svg version="1.0" xmlns="http://www.w3.org/2000/svg"
 width="126.000000pt" height="126.000000pt" viewBox="0 0 126.000000 126.000000"
 preserveAspectRatio="xMidYMid meet">
<metadata>
Created by potrace 1.14, written by Peter Selinger 2001-2017
</metadata>
<g transform="translate(0.000000,126.000000) scale(0.100000,-0.100000)"
fill="#000000" stroke="none">
<path d="M560 1201 c-117 -38 -190 -129 -195 -246 -14 -285 361 -390 502 -140
38 68 40 177 4 244 -28 54 -83 107 -131 128 -41 18 -144 26 -180 14z m168 -95
c17 -9 44 -35 60 -58 23 -35 27 -52 27 -108 0 -57 -4 -73 -29 -108 -50 -72
-147 -101 -228 -68 -101 43 -146 162 -98 261 48 99 165 134 268 81z"/>
<path d="M204 533 c8 -85 14 -149 21 -203 3 -19 7 -66 11 -105 4 -38 8 -77 9
-85 2 -8 4 -32 4 -52 l1 -38 505 0 505 0 0 75 c0 73 -2 80 -56 180 -31 58 -62
105 -69 105 -7 0 -22 -8 -34 -18 l-22 -17 54 -104 c31 -58 52 -112 50 -122 -6
-20 -45 -26 -126 -21 -44 4 -47 6 -43 28 3 14 8 69 11 122 4 53 8 104 10 113
2 9 6 62 10 118 l7 101 -427 0 -427 0 6 -77z m762 -50 c-3 -27 -8 -79 -11
-118 -3 -38 -8 -97 -11 -130 -4 -33 -6 -70 -5 -82 1 -22 -3 -23 -77 -23 -212
-2 -535 0 -538 3 -1 1 -6 43 -9 92 -4 49 -8 92 -10 95 -2 3 -6 39 -10 80 -3
41 -8 87 -11 103 l-4 27 346 0 345 0 -5 -47z"/>
<path d="M590 365 c-26 -32 13 -81 48 -59 22 14 27 41 12 59 -16 19 -44 19
-60 0z"/>
<path d="M56 306 c-54 -101 -56 -108 -56 -181 l0 -75 85 0 85 0 0 39 0 39 -45
-2 c-44 -2 -45 -1 -45 28 0 16 23 71 51 124 53 101 54 111 3 126 -19 6 -28 -6
-78 -98z"/>
</g>
</svg>
