<svg width="1200" height="628" viewBox="0 0 1200 628" fill="none" xmlns="http://www.w3.org/2000/svg">
<g clip-path="url(#clip0_2076_7723)">
<g clip-path="url(#clip1_2076_7723)">
<mask id="mask0_2076_7723" style="mask-type:luminance" maskUnits="userSpaceOnUse" x="0" y="-24" width="1200" height="675">
<path d="M1200 -24H0V651H1200V-24Z" fill="white"/>
</mask>
<g mask="url(#mask0_2076_7723)">
<path d="M1200 -24H0V651H1200V-24Z" fill="#25212B"/>
<path d="M1200 -24.3125H0V650.688H1200V-24.3125Z" fill="url(#paint0_linear_2076_7723)"/>
<path opacity="0.25" d="M1418.75 843.944V396.181C1418.75 388.793 1414.81 381.969 1408.41 378.274L1020.65 154.396C1014.26 150.702 1006.37 150.702 999.975 154.396L612.214 378.274C605.817 381.969 601.875 388.793 601.875 396.181V843.944C601.875 851.331 605.817 858.156 612.214 861.85L999.975 1085.73C1006.37 1089.42 1014.26 1089.42 1020.65 1085.73L1408.41 861.85C1414.81 858.156 1418.75 851.331 1418.75 843.944Z" fill="url(#paint1_linear_2076_7723)"/>
<path opacity="0.25" d="M-215 -257.571V190.192C-215 197.581 -211.058 204.405 -204.661 208.1L183.099 431.977C189.495 435.672 197.38 435.672 203.776 431.977L591.536 208.1C597.933 204.405 601.875 197.581 601.875 190.192V-257.571C601.875 -264.959 597.933 -271.783 591.536 -275.478L203.776 -499.356C197.38 -503.05 189.495 -503.05 183.099 -499.356L-204.661 -275.478C-211.058 -271.783 -215 -264.953 -215 -257.571Z" fill="url(#paint2_linear_2076_7723)"/>
<path opacity="0.5" d="M1008.44 539.606V86.4538C1008.44 78.9763 1004.49 72.07 998.1 68.3313L610.339 -158.242C603.942 -161.981 596.058 -161.981 589.661 -158.242L201.901 68.3313C195.505 72.07 191.562 78.9763 191.562 86.4538V539.606C191.562 547.084 195.505 553.99 201.901 557.729L589.661 784.3C596.058 788.044 603.942 788.044 610.339 784.3L998.1 557.729C1004.49 553.99 1008.44 547.084 1008.44 539.606Z" fill="url(#paint3_linear_2076_7723)"/>
</g>
</g>
<g opacity="0.45" filter="url(#filter0_d_2076_7723)">
<path d="M406 412.853V215.222C406 207.257 410.243 199.888 417.166 195.869L588.372 97.0167C595.294 92.9945 603.78 92.9945 610.703 97.0167L781.91 195.869C788.83 199.888 793.074 207.257 793.074 215.222V412.853C793.074 420.818 788.83 428.187 781.91 432.207L610.703 530.985C603.78 535.005 595.294 535.005 588.372 530.985L417.166 432.207C410.243 428.187 406 420.818 406 412.853Z" fill="url(#paint4_linear_2076_7723)"/>
</g>
<g clip-path="url(#clip2_2076_7723)">
<mask id="mask1_2076_7723" style="mask-type:luminance" maskUnits="userSpaceOnUse" x="426" y="114" width="347" height="400">
<path d="M772.667 114H426V514H772.667V114Z" fill="white"/>
</mask>
<g mask="url(#mask1_2076_7723)">
<mask id="mask2_2076_7723" style="mask-type:luminance" maskUnits="userSpaceOnUse" x="426" y="114" width="347" height="400">
<path d="M772.667 114H426V514H772.667V114Z" fill="white"/>
</mask>
<g mask="url(#mask2_2076_7723)">
<path d="M426 224.133V403.799C426 411.039 429.8 417.739 436 421.393L589.333 511.259C595.533 514.913 603.133 514.913 609.333 511.259L762.667 421.393C768.867 417.739 772.667 411.039 772.667 403.799V224.133C772.667 216.893 768.867 210.193 762.667 206.539L609.333 116.741C603.133 113.086 595.533 113.086 589.333 116.741L436 206.539C429.8 210.193 426 216.893 426 224.133Z" fill="url(#paint5_linear_2076_7723)"/>
<path d="M446.667 236.247V391.753C446.667 398.994 450.467 405.693 456.667 409.347L589.333 487.101C595.533 490.755 603.133 490.755 609.333 487.101L742 409.347C748.2 405.693 752 398.994 752 391.753V236.247C752 229.006 748.2 222.307 742 218.652L609.333 140.966C603.133 137.312 595.533 137.312 589.333 140.966L456.667 218.652C450.467 222.307 446.667 229.006 446.667 236.247Z" fill="url(#paint6_linear_2076_7723)"/>
<path d="M772.667 261.285H426V376.054H772.667V261.285Z" fill="url(#paint7_linear_2076_7723)"/>
<path d="M616.733 424.709C616.533 424.709 616.333 424.641 616.2 424.438C603 409.754 596 403.325 574.6 394.325C574.267 394.189 574.067 393.783 574.133 393.445C574.2 393.039 574.6 392.836 574.933 392.904C602.4 396.693 620.4 423.017 620.6 423.288C620.733 423.491 620.8 423.829 620.667 424.032C620.533 424.303 620.333 424.438 620.067 424.438L616.733 424.709C616.8 424.709 616.8 424.709 616.733 424.709ZM582.2 396.017C598.533 403.596 605.467 410.16 617.067 423.153L618.6 423.085C615.267 418.551 601.8 401.836 582.2 396.017Z" fill="white"/>
<path d="M626.133 439.326C626.133 439.258 626.133 439.191 626.067 439.191C625.467 438.446 624.8 437.296 624.2 436.213C623.867 435.672 623.6 435.198 623.333 434.859C623.2 434.657 623.067 434.521 622.933 434.386C622.8 434.251 622.667 434.183 622.4 434.183C622.333 434.183 622.2 434.183 622.133 434.251C622.067 434.318 622 434.386 621.933 434.453C621.8 434.724 621.733 435.063 621.733 435.401C621.733 436.078 621.933 436.89 622.333 437.499C622.533 437.702 622.733 437.973 623 438.175C623.667 438.785 624.6 439.326 624.8 439.461V439.529C624.8 439.597 624.867 439.664 624.867 439.732C624.867 439.867 625 439.935 625.133 440.003C625.333 440.07 625.467 440.07 625.6 440.07C625.733 440.07 625.867 440.07 626 439.935C626.067 439.867 626.133 439.799 626.133 439.732C626.133 439.664 626.133 439.597 626.133 439.529C626.133 439.529 626.133 439.393 626.133 439.326Z" fill="white"/>
<path d="M579.2 458.341C578.4 458.138 577.667 458.273 577 458.679C576.333 459.085 575.867 459.762 575.667 460.507C575.467 461.319 575.6 462.063 576 462.739C576.4 463.416 577.067 463.89 577.8 464.093C578 464.161 578.267 464.161 578.467 464.161C579.8 464.161 581 463.213 581.333 461.86C581.533 461.048 581.4 460.303 581 459.627C580.667 459.018 580 458.544 579.2 458.341Z" fill="white"/>
<path d="M592.4 443.453C592 442.777 591.333 442.303 590.6 442.1C589.8 441.897 589.066 442.033 588.4 442.439C587.733 442.845 587.266 443.521 587.066 444.265C586.866 445.077 587 445.822 587.4 446.499C587.8 447.175 588.466 447.649 589.2 447.852C589.4 447.92 589.666 447.92 589.866 447.92C590.4 447.92 590.933 447.785 591.4 447.446C592.066 447.04 592.533 446.363 592.733 445.619C592.933 444.942 592.866 444.13 592.4 443.453Z" fill="white"/>
<path d="M604.866 464.296C604.666 464.296 604.4 464.296 604.2 464.229C603.4 464.025 602.8 463.552 602.4 462.875C602 462.198 601.866 461.386 602.066 460.642C602.266 459.83 602.733 459.221 603.4 458.815C604.066 458.409 604.866 458.273 605.6 458.477C606.4 458.679 607 459.153 607.4 459.83C607.8 460.507 607.933 461.319 607.733 462.063C607.466 463.349 606.2 464.296 604.866 464.296ZM604.533 462.672C605.333 462.875 606.066 462.401 606.266 461.589C606.333 461.183 606.266 460.845 606.066 460.507C605.866 460.168 605.533 459.965 605.2 459.83C604.8 459.762 604.466 459.83 604.133 460.033C603.8 460.236 603.6 460.574 603.466 460.913C603.4 461.319 603.466 461.657 603.666 461.995C603.866 462.401 604.2 462.604 604.533 462.672Z" fill="white"/>
<path d="M572.067 453.469C571.867 453.469 571.6 453.469 571.4 453.401C570.6 453.198 570 452.725 569.6 452.048C569.2 451.371 569.067 450.559 569.267 449.815C569.467 449.003 569.933 448.393 570.6 447.987C571.267 447.581 572.067 447.446 572.8 447.649C573.6 447.852 574.2 448.326 574.6 449.003C575 449.679 575.133 450.491 574.933 451.236C574.733 452.048 574.267 452.657 573.6 453.063C573.133 453.333 572.6 453.469 572.067 453.469ZM572.067 449.003C571.8 449.003 571.533 449.07 571.333 449.206C571 449.409 570.8 449.747 570.667 450.085C570.6 450.491 570.667 450.83 570.867 451.168C571.067 451.507 571.4 451.709 571.733 451.845C572.133 451.913 572.467 451.845 572.8 451.642C573.133 451.439 573.333 451.101 573.467 450.762C573.533 450.356 573.467 450.018 573.267 449.679C573.067 449.341 572.733 449.138 572.4 449.003C572.267 449.003 572.2 449.003 572.067 449.003Z" fill="white"/>
<path d="M584.2 429.175C584 429.175 583.733 429.175 583.533 429.107C581.933 428.701 581 427.077 581.333 425.521C581.533 424.709 582 424.1 582.667 423.694C583.333 423.288 584.133 423.153 584.867 423.355C586.467 423.761 587.4 425.386 587.067 426.942C586.733 428.228 585.533 429.175 584.2 429.175ZM583.867 427.551C584.667 427.754 585.4 427.281 585.6 426.469C585.8 425.657 585.333 424.912 584.533 424.709C584.133 424.641 583.8 424.709 583.467 424.912C583.133 425.115 582.933 425.453 582.8 425.792C582.6 426.604 583.067 427.348 583.867 427.551Z" fill="white"/>
<path d="M602.8 459.153C603 458.951 603.133 458.815 603.333 458.68C603.6 458.545 603.8 458.409 604.066 458.341C601.666 454.619 597.533 449.95 592.666 446.025C592.466 446.499 592.2 446.973 591.8 447.311C596.533 451.101 600.466 455.635 602.8 459.153Z" fill="white"/>
<path d="M581.4 462.063H602.067C601.933 461.589 601.933 461.116 602.067 460.574V460.507H587.267C585.333 458.206 576.133 446.973 577.333 437.093C577.667 434.115 578.933 431.544 581.133 429.378C581.067 429.581 581 429.784 580.933 430.055C579.733 434.927 582.267 440.544 587.2 444.063C587.4 443.589 587.667 443.115 588.067 442.845C583 439.258 581.533 433.98 582.4 430.461C582.533 429.919 582.733 429.446 582.933 428.972C582.333 428.701 581.867 428.228 581.533 427.619C578.533 430.19 576.733 433.303 576.267 437.025C575.533 443.048 578.467 449.409 581.067 453.739C582.867 456.785 584.8 459.221 585.933 460.574H581.4C581.533 461.048 581.533 461.522 581.4 462.063C581.4 461.995 581.4 461.995 581.4 462.063Z" fill="white"/>
<path d="M573.6 453.063C573.533 453.13 573.4 453.13 573.333 453.198C574.933 455.228 576.067 457.19 576.8 458.882C576.867 458.815 576.933 458.815 576.933 458.747C577.333 458.476 577.733 458.341 578.2 458.341C577.4 456.513 576.2 454.416 574.467 452.25C574.267 452.521 573.933 452.792 573.6 453.063Z" fill="white"/>
<path d="M646.133 450.829C646.067 450.491 645.733 450.288 645.4 450.288C645.333 450.288 643.467 450.288 639.267 448.664C635.467 447.243 631 443.183 629.933 442.033C630 442.033 630 442.033 630.067 441.965C630.2 441.965 630.333 441.897 630.4 441.829C630.667 441.559 630.867 441.221 630.867 440.814C630.933 439.325 628.867 437.228 628.667 436.957C628.333 436.619 626.6 433.844 622.667 427.077L622.533 426.874L622.467 426.807C622.333 426.603 622.2 426.265 621.733 425.995C621.667 425.927 621.6 425.927 621.533 425.927C620.4 425.589 616.8 426.13 615.2 426.401C615 426.13 614.6 425.656 614.467 425.453C614.333 425.25 614.267 425.183 614.2 425.115C613.067 423.761 611.8 422.408 610.467 421.19C606.333 417.197 601.933 414.355 597.4 412.731C593.533 411.31 590.133 407.588 589.333 403.866C589.267 403.595 589.2 403.257 589.2 402.987C589.2 402.648 588.933 402.31 588.6 402.242C588.267 402.175 587.933 402.31 587.733 402.648C586.4 405.423 587.267 409.145 587.867 411.107C579.333 410.295 576.333 403.866 576.2 403.595C576.067 403.257 575.733 403.122 575.4 403.122C575.067 403.189 574.8 403.46 574.733 403.799C574.067 408.874 576.333 412.055 577.867 413.611C571.2 414.761 566.267 409.347 566.2 409.28C566 409.077 565.667 408.941 565.4 409.077C565.133 409.145 564.933 409.415 564.867 409.753C564.867 409.957 564.333 414.897 571.333 418.686C567.667 422.34 565.6 426.807 565.333 431.949C565 437.972 567.067 444.13 569.733 448.597C569.933 448.393 570.133 448.191 570.4 448.055C570.6 447.92 570.8 447.852 571 447.785C568.467 443.521 566.533 437.769 566.867 432.085C567.2 426.942 569.267 422.611 573.2 419.092C573.4 418.889 573.467 418.686 573.467 418.415C573.4 418.145 573.267 417.942 573.067 417.807C568.933 415.776 567.4 413.475 566.8 411.851C569.2 413.746 573.933 416.588 579.8 414.761C580.067 414.693 580.267 414.423 580.333 414.152C580.4 413.881 580.267 413.543 580 413.408C579.933 413.408 576.6 411.175 576.267 406.505C578.067 408.874 581.8 412.325 588.267 412.799H588.333C588.533 412.799 588.733 412.799 588.933 412.799H589C589.267 412.799 589.467 412.663 589.6 412.461C589.733 412.257 589.8 411.987 589.667 411.716C589.2 410.498 588.667 408.4 588.6 406.505C590.133 409.889 593.333 413.002 596.867 414.287C601.2 415.911 605.4 418.619 609.4 422.475C610.667 423.694 611.933 424.979 613 426.265C613 426.333 613.067 426.401 613.2 426.536C614.2 427.889 614.467 428.295 615 428.16C617.333 427.754 620.067 427.415 620.867 427.551C620.933 427.619 620.933 427.619 621 427.754C621 427.821 621.067 427.889 621.067 427.957L621.2 428.16C624.8 434.385 626.933 437.769 627.467 438.378C628.4 439.325 629.067 440.408 629.2 440.882C628.733 441.017 628.4 441.288 628.267 441.627C628.133 441.897 628.067 442.303 628.267 442.777C628.533 443.386 634.067 448.597 638.6 450.356C640.6 451.1 642.133 451.506 643.2 451.777C641.067 453.198 637.8 455.634 636.267 457.191C631.2 450.965 623.6 446.431 622.667 445.889C621.933 445.483 620.8 444.942 619.467 444.333C616.667 443.047 612.867 441.356 611.733 439.867C610 437.701 609.933 435.333 610 432.626C610 432.423 609.933 432.153 609.733 432.017C609.6 431.949 607.067 429.717 603.267 427.619C599.733 425.656 594.333 423.423 589 423.829C588 423.897 587.133 424.1 586.267 424.371C586.6 424.777 586.867 425.25 587 425.724C587.667 425.521 588.333 425.385 589.133 425.318C597.867 424.641 606.867 431.611 608.533 432.965C608.467 435.671 608.667 438.378 610.6 440.814C612 442.574 615.867 444.333 618.933 445.754C620.2 446.363 621.333 446.837 622 447.243C622.867 447.785 630.933 452.521 635.733 458.883C635.867 459.085 636.133 459.221 636.4 459.153C636.667 459.153 636.867 458.95 637 458.747C637.667 457.529 642.733 453.875 645.733 451.912C646.067 451.506 646.2 451.1 646.133 450.829Z" fill="white"/>
<path d="M493.6 355.279C487.067 355.279 481.333 354.129 476.533 351.828C471.733 349.527 467.733 346.414 464.6 342.557C461.467 338.7 459.133 334.572 457.6 330.173C456.067 325.775 455.333 321.511 455.333 317.383V315.151C455.333 310.617 456.133 306.15 457.733 301.684C459.333 297.218 461.733 293.157 464.933 289.503C468.133 285.849 472.133 282.939 476.933 280.774C481.733 278.609 487.267 277.526 493.667 277.526C500.067 277.526 505.6 278.609 510.4 280.774C515.2 282.939 519.2 285.849 522.467 289.503C525.667 293.157 528.067 297.218 529.667 301.684C531.267 306.15 532.067 310.684 532.067 315.151V317.383C532.067 321.511 531.267 325.775 529.734 330.173C528.2 334.572 525.8 338.7 522.667 342.557C519.533 346.414 515.533 349.459 510.733 351.828C505.8 354.129 500.133 355.279 493.6 355.279ZM493.6 342.015C497.333 342.015 500.667 341.339 503.667 339.985C506.667 338.632 509.2 336.805 511.267 334.369C513.333 332.001 514.934 329.226 516.067 326.181C517.134 323.135 517.734 319.887 517.734 316.436C517.734 312.782 517.2 309.466 516.067 306.353C514.934 303.241 513.333 300.534 511.267 298.233C509.2 295.932 506.667 294.105 503.733 292.819C500.8 291.533 497.467 290.925 493.733 290.925C490.067 290.925 486.8 291.533 483.8 292.819C480.8 294.105 478.267 295.932 476.2 298.233C474.133 300.534 472.533 303.241 471.4 306.353C470.333 309.466 469.733 312.782 469.733 316.436C469.733 319.887 470.267 323.135 471.4 326.181C472.467 329.226 474.067 332.001 476.2 334.369C478.267 336.737 480.8 338.632 483.8 339.985C486.6 341.339 489.933 342.015 493.6 342.015Z" fill="white"/>
<path d="M569.734 355.279C563.4 355.279 557.934 354.264 553.534 352.166C549.067 350.069 545.734 347.226 543.467 343.505C541.2 339.85 540.067 335.655 540.067 331.053H553.867C553.867 333.015 554.4 334.91 555.467 336.737C556.534 338.565 558.267 340.053 560.6 341.203C562.934 342.354 566 342.895 569.8 342.895C573.334 342.895 576.2 342.421 578.534 341.407C580.867 340.391 582.534 339.038 583.734 337.414C584.867 335.79 585.467 333.895 585.467 331.797C585.467 329.226 584.4 327.196 582.2 325.572C580 324.015 576.6 323 571.934 322.594L565.6 321.985C558.667 321.376 553.067 319.143 548.934 315.353C544.8 311.564 542.734 306.489 542.734 300.263C542.734 295.526 543.8 291.466 546 288.082C548.2 284.699 551.267 282.059 555.2 280.233C559.134 278.405 563.8 277.458 569.067 277.458C574.6 277.458 579.334 278.405 583.334 280.368C587.334 282.33 590.4 285.037 592.6 288.623C594.734 292.143 595.8 296.338 595.8 301.075H582C582 299.113 581.534 297.285 580.6 295.594C579.667 293.902 578.267 292.481 576.334 291.398C574.4 290.315 572 289.774 569.067 289.774C566.267 289.774 564 290.248 562.134 291.263C560.334 292.21 558.934 293.496 558 295.12C557.067 296.677 556.6 298.436 556.6 300.331C556.6 302.631 557.4 304.594 559.067 306.353C560.734 308.045 563.334 309.06 566.934 309.331L573.2 309.94C578.467 310.346 583 311.429 586.867 313.256C590.734 315.083 593.8 317.519 596 320.632C598.2 323.745 599.267 327.467 599.267 331.865C599.267 336.534 598.067 340.595 595.667 344.113C593.267 347.632 589.867 350.407 585.467 352.369C581 354.331 575.8 355.279 569.734 355.279Z" fill="white"/>
<path d="M644.867 355.279C638.267 355.279 632.6 354.129 627.933 351.828C623.267 349.527 619.467 346.414 616.467 342.625C613.533 338.835 611.333 334.707 609.933 330.309C608.533 325.91 607.867 321.579 607.867 317.451V315.218C607.867 310.617 608.6 306.151 610 301.684C611.4 297.218 613.6 293.225 616.533 289.571C619.467 285.917 623.267 283.007 627.867 280.841C632.467 278.676 637.933 277.593 644.2 277.593C650.733 277.593 656.467 278.811 661.4 281.247C666.333 283.684 670.2 287.067 673.133 291.331C676.067 295.661 677.8 300.669 678.4 306.489H664.067C663.6 303.105 662.467 300.331 660.667 298.03C658.867 295.729 656.533 293.97 653.733 292.751C650.933 291.533 647.733 290.925 644.267 290.925C640.733 290.925 637.6 291.533 634.8 292.819C632 294.105 629.667 295.865 627.867 298.165C626 300.466 624.6 303.173 623.667 306.218C622.733 309.331 622.2 312.715 622.2 316.436C622.2 320.091 622.667 323.406 623.667 326.519C624.6 329.632 626.067 332.339 628 334.639C629.933 336.941 632.267 338.767 635.133 340.053C637.933 341.339 641.2 341.948 644.933 341.948C650.4 341.948 654.933 340.595 658.667 337.888C662.4 335.181 664.667 331.324 665.4 326.451H679.733C679.067 331.73 677.333 336.535 674.467 340.865C671.6 345.264 667.733 348.715 662.733 351.354C657.667 353.993 651.733 355.279 644.867 355.279Z" fill="white"/>
<path d="M691.6 353.384V279.217H705.733V353.452H691.6V353.384ZM703.733 330.782V318.331H717.867C720.667 318.331 723 317.789 725 316.639C726.933 315.489 728.467 313.933 729.533 311.902C730.6 309.872 731.133 307.571 731.133 305.067C731.133 302.361 730.6 299.992 729.533 298.03C728.467 296 726.933 294.443 725 293.361C723.067 292.278 720.667 291.669 717.867 291.669H703.733V279.285H716.667C722.733 279.285 727.933 280.3 732.2 282.33C736.467 284.361 739.733 287.203 742 290.992C744.267 294.714 745.4 299.18 745.4 304.391V306.015C745.4 311.09 744.267 315.489 742 319.211C739.733 323 736.467 325.843 732.2 327.873C727.933 329.903 722.733 330.918 716.667 330.918H703.733V330.782Z" fill="white"/>
<path fill-rule="evenodd" clip-rule="evenodd" d="M537 220.209C537 224.539 537.334 228.803 537.934 233.066L539.267 242.201C538.067 242.405 536.934 242.54 535.667 242.54C534.4 242.54 533.267 242.405 532.067 242.201L533.4 233.066C534 228.803 534.334 224.539 534.334 220.209V200.99C534.8 200.99 535.267 200.923 535.734 200.923C536.2 200.923 536.667 200.923 537.134 200.99V220.209H537ZM523.2 238.344L528.534 227.788C528.934 226.975 529.134 226.096 529.134 225.216V202.005C521 204.78 515.067 212.562 515.067 221.765C515.134 228.532 518.334 234.555 523.2 238.344ZM542.134 225.216C542.134 226.096 542.334 226.975 542.734 227.788L548.067 238.344C553 234.555 556.134 228.532 556.134 221.765C556.134 212.562 550.267 204.78 542.067 202.005V225.216H542.134Z" fill="white"/>
<path d="M682.667 214.998V214.524H684.933V214.998H682.667ZM683.533 217.501V214.863H684V217.501H683.533ZM685.4 217.501V214.592H685.866V217.501H685.4ZM686.8 217.501L685.533 214.592H686.067L686.933 216.757L687.8 214.592H688.333L687.067 217.501H686.8ZM687.933 217.501V214.592H688.4V217.501H687.933Z" fill="white"/>
<path d="M579.667 209.043C572 209.043 566.4 214.591 566.4 222.306V222.577C566.4 230.359 571.867 235.84 579.667 235.84C587.467 235.84 592.867 230.359 592.867 222.509V222.239C592.867 214.456 587.4 209.043 579.667 209.043ZM571.8 222.306C571.8 216.757 574.8 213.306 579.667 213.306C584.533 213.306 587.467 216.825 587.467 222.306V222.577C587.467 228.058 584.4 231.645 579.733 231.645C575.067 231.645 571.8 227.923 571.8 222.645V222.306Z" fill="white"/>
<path d="M616.933 208.028C616.066 207.757 615.4 207.689 614.333 207.689C610.2 207.689 607.8 210.058 607.8 214.253V216.351H600.6V214.051C600.6 211.953 601.866 211.479 602.866 211.479C603.666 211.479 604.333 211.682 604.733 211.817C604.8 211.817 604.866 211.817 604.933 211.817C605 211.75 605 211.75 605 211.682V208.299C605 208.231 604.933 208.163 604.866 208.095C604 207.825 603.333 207.757 602.333 207.757C598.133 207.757 595.8 210.058 595.8 214.321V235.367C595.8 235.502 595.866 235.57 596 235.57H600.333C600.466 235.57 600.533 235.502 600.533 235.367V219.938H607.733V235.231C607.733 235.367 607.8 235.435 607.933 235.435H612.266C612.4 235.435 612.466 235.367 612.466 235.231V219.938H616.533C616.666 219.938 616.733 219.87 616.733 219.735V216.487C616.733 216.351 616.666 216.283 616.533 216.283H612.466V214.051C612.466 211.953 613.733 211.479 614.733 211.479C615.6 211.479 616.266 211.682 616.666 211.817C616.733 211.817 616.8 211.817 616.866 211.817C616.933 211.817 616.933 211.75 616.933 211.682V208.299C617.066 208.163 617.066 208.095 616.933 208.028Z" fill="white"/>
<path d="M629.8 219.802C625.4 219.193 624.6 218.178 624.6 216.216C624.6 214.253 626.2 213.035 628.866 213.035C631.8 213.035 633.2 214.118 633.666 216.689C633.666 216.757 633.733 216.825 633.866 216.825H638.266C638.333 216.825 638.4 216.825 638.4 216.757C638.466 216.689 638.466 216.689 638.466 216.622C637.933 211.614 634.666 208.975 628.866 208.975C623.466 208.975 619.666 212.088 619.666 216.554C619.666 221.02 622.266 223.389 628.933 224.269C633.4 225.013 634.133 226.028 634.133 227.99C634.133 230.223 632.266 231.712 629.466 231.712C625.133 231.712 624.2 229.547 623.933 227.178C623.933 227.111 623.866 226.975 623.733 226.975H619.133C619.066 226.975 619 226.975 619 227.043C619 227.111 618.933 227.111 618.933 227.178C619.2 231.035 621.266 235.705 629.466 235.705C635.066 235.705 639.133 232.253 639.133 227.584C639.2 222.239 635.6 220.614 629.8 219.802Z" fill="white"/>
<path d="M657.733 218.179C656.133 216.689 653.933 215.877 651.4 215.877C645.733 215.877 641.8 219.938 641.8 225.757V226.028C641.8 231.848 645.733 235.773 651.533 235.773C656.533 235.773 659.8 233.472 660.4 229.479C660.4 229.412 660.4 229.344 660.333 229.344C660.266 229.277 660.266 229.277 660.2 229.277H656C655.933 229.277 655.8 229.344 655.8 229.412C655.466 231.239 654.066 232.119 651.666 232.119C648.666 232.119 646.866 230.291 646.666 226.975H660.266C660.4 226.975 660.466 226.908 660.466 226.773V225.487C660.466 222.374 659.533 219.87 657.733 218.179ZM646.8 223.727C647.266 221.021 648.933 219.464 651.4 219.464C654.066 219.464 655.533 220.885 655.733 223.727H646.8Z" fill="white"/>
<path d="M682.067 228.126C682 228.059 682 228.059 681.933 228.059H677.933C677.8 228.059 677.733 228.126 677.733 228.261C677.533 230.562 675.8 232.119 673.4 232.119C670.2 232.119 668.4 229.885 668.4 226.096V225.825C668.4 222.171 670.333 219.87 673.333 219.87C675.733 219.87 677.133 221.021 677.467 223.254C677.467 223.321 677.533 223.457 677.667 223.457H681.867C681.933 223.457 682 223.457 682 223.389C682.067 223.321 682.067 223.321 682.067 223.254C681.6 218.652 678.4 216.013 673.267 216.013C667.6 216.013 663.533 220.209 663.533 225.961V226.231C663.533 232.051 667.467 235.976 673.267 235.976C678.333 235.976 681.867 232.998 682.2 228.397C682.133 228.261 682.133 228.194 682.067 228.126Z" fill="white"/>
</g>
</g>
</g>
</g>
<defs>
<filter id="filter0_d_2076_7723" x="394" y="88" width="411.074" height="464" filterUnits="userSpaceOnUse" color-interpolation-filters="sRGB">
<feFlood flood-opacity="0" result="BackgroundImageFix"/>
<feColorMatrix in="SourceAlpha" type="matrix" values="0 0 0 0 0 0 0 0 0 0 0 0 0 0 0 0 0 0 127 0" result="hardAlpha"/>
<feOffset dy="6"/>
<feGaussianBlur stdDeviation="6"/>
<feColorMatrix type="matrix" values="0 0 0 0 0 0 0 0 0 0 0 0 0 0 0 0 0 0 0.1 0"/>
<feBlend mode="normal" in2="BackgroundImageFix" result="effect1_dropShadow_2076_7723"/>
<feBlend mode="normal" in="SourceGraphic" in2="effect1_dropShadow_2076_7723" result="shape"/>
</filter>
<linearGradient id="paint0_linear_2076_7723" x1="1398.75" y1="1409.12" x2="161.25" y2="171.625" gradientUnits="userSpaceOnUse">
<stop stop-color="#E66124"/>
<stop offset="1" stop-color="#E66124" stop-opacity="0"/>
</linearGradient>
<linearGradient id="paint1_linear_2076_7723" x1="1557.59" y1="620.056" x2="697.425" y2="620.056" gradientUnits="userSpaceOnUse">
<stop stop-color="#E66124"/>
<stop offset="1" stop-color="#E66124" stop-opacity="0.1"/>
</linearGradient>
<linearGradient id="paint2_linear_2076_7723" x1="-203.786" y1="-33.6787" x2="656.375" y2="-33.6787" gradientUnits="userSpaceOnUse">
<stop stop-color="#E66124"/>
<stop offset="1" stop-color="#E66124" stop-opacity="0.1"/>
</linearGradient>
<linearGradient id="paint3_linear_2076_7723" x1="1147.28" y1="313.027" x2="287.114" y2="313.027" gradientUnits="userSpaceOnUse">
<stop stop-color="#E66124"/>
<stop offset="1" stop-color="#E66124" stop-opacity="0.1"/>
</linearGradient>
<linearGradient id="paint4_linear_2076_7723" x1="599.536" y1="96.017" x2="599.536" y2="472.231" gradientUnits="userSpaceOnUse">
<stop stop-color="#BA4F00"/>
<stop offset="1" stop-color="#E66124"/>
</linearGradient>
<linearGradient id="paint5_linear_2076_7723" x1="599.333" y1="471.559" x2="599.333" y2="187.081" gradientUnits="userSpaceOnUse">
<stop stop-color="#BA4F00"/>
<stop offset="1" stop-color="#E66124"/>
</linearGradient>
<linearGradient id="paint6_linear_2076_7723" x1="599.333" y1="566.748" x2="599.333" y2="270.793" gradientUnits="userSpaceOnUse">
<stop stop-color="#E66124"/>
<stop offset="1" stop-color="#BA4F00"/>
</linearGradient>
<linearGradient id="paint7_linear_2076_7723" x1="599.333" y1="236.651" x2="599.333" y2="374.665" gradientUnits="userSpaceOnUse">
<stop stop-color="#E66124"/>
<stop offset="1" stop-color="#BA4F00"/>
</linearGradient>
<clipPath id="clip0_2076_7723">
<rect width="1200" height="628" fill="white"/>
</clipPath>
<clipPath id="clip1_2076_7723">
<rect width="1200" height="675" fill="white" transform="translate(0 -24)"/>
</clipPath>
<clipPath id="clip2_2076_7723">
<rect width="346.667" height="400" fill="white" transform="translate(426 114)"/>
</clipPath>
</defs>
</svg>
